<svg xmlns="http://www.w3.org/2000/svg" data-name="Layer 2" viewBox="0 0 100 125" x="0px" y="0px"><title>WEATHER(OUTLINE)</title><path d="M36.34,39.66c0-6.57-10.22-19-11.39-20.39a2,2,0,0,0-3.07,0C20.72,20.66,10.5,33.09,10.5,39.66a12.92,12.92,0,1,0,25.84,0ZM23.42,48.58a8.93,8.93,0,0,1-8.92-8.92c0-3.4,5-10.88,8.92-15.93,3.95,5,8.92,12.53,8.92,15.93A8.93,8.93,0,0,1,23.42,48.58Z"/><path d="M78.11,19.27a2.07,2.07,0,0,0-3.07,0c-1.17,1.4-11.39,13.83-11.39,20.39a12.92,12.92,0,1,0,25.84,0C89.5,33.09,79.28,20.66,78.11,19.27ZM76.58,48.58a8.93,8.93,0,0,1-8.92-8.92c0-3.4,5-10.88,8.92-15.93,3.95,5,8.92,12.52,8.92,15.93A8.93,8.93,0,0,1,76.58,48.58Z"/><path d="M48.46,33c-1.73,2.07-16.89,20.5-16.89,30a18.42,18.42,0,1,0,36.85,0c0-9.52-15.16-28-16.89-30A2.07,2.07,0,0,0,48.46,33ZM50,77.45A14.44,14.44,0,0,1,35.58,63c0-6.15,9.32-19.15,14.42-25.57C55.1,43.88,64.42,56.87,64.42,63A14.44,14.44,0,0,1,50,77.45Z"/></svg>