<svg xmlns="http://www.w3.org/2000/svg" data-name="Layer 2" viewBox="0 0 100 125" x="0px" y="0px"><title>WEATHER(OUTLINE)</title><path d="M77.5,70.8H24.28a13.78,13.78,0,0,1,0-27.56,13.63,13.63,0,0,1,3.35.42,17.69,17.69,0,0,1,15.23-8.56,17.88,17.88,0,0,1,2.43.17A20.76,20.76,0,0,1,80.54,47.19a12,12,0,0,1-3,23.61ZM24.28,47.25a9.78,9.78,0,0,0,0,19.56H77.5a8,8,0,0,0,1-15.94A2,2,0,0,1,76.7,49,16.77,16.77,0,0,0,47.48,38.76a2,2,0,0,1-1.88.62,14,14,0,0,0-2.75-.28,13.75,13.75,0,0,0-12.46,7.84,2,2,0,0,1-2.53,1A9.72,9.72,0,0,0,24.28,47.25Z"/></svg>