<svg xmlns="http://www.w3.org/2000/svg" data-name="Layer 2" viewBox="0 0 100 125" x="0px" y="0px"><title>WEATHER(OUTLINE)</title><path d="M50,10.5A39.5,39.5,0,1,0,89.5,50,39.54,39.54,0,0,0,50,10.5Zm0,75A35.5,35.5,0,1,1,85.5,50,35.54,35.54,0,0,1,50,85.5Z"/><path d="M30.06,52.5A8.94,8.94,0,1,0,39,61.44,8.95,8.95,0,0,0,30.06,52.5Zm0,13.88A4.94,4.94,0,1,1,35,61.44,4.94,4.94,0,0,1,30.06,66.38Z"/><path d="M42.19,68.84A5.78,5.78,0,1,0,48,74.63,5.79,5.79,0,0,0,42.19,68.84Zm0,7.56A1.78,1.78,0,1,1,44,74.63,1.78,1.78,0,0,1,42.19,76.41Z"/></svg>