<svg xmlns="http://www.w3.org/2000/svg" viewBox="0 0 32 40" x="0px" y="0px"><title>Snow</title><g><path d="M27.76,21.63l-1.85-1.07,1.56-.77A1,1,0,0,0,26.58,18l-2.75,1.36-4-2.31a3.58,3.58,0,0,0,0-2.12l4-2.31L26.58,14a1,1,0,0,0,.89-1.79l-1.56-.77,1.85-1.07a1,1,0,0,0-1-1.73L24.91,9.7,25,8a1,1,0,1,0-2-.13l-.2,3.06-4,2.3A4,4,0,0,0,17,12.14V7.54l2.55-1.7a1,1,0,1,0-1.11-1.66L17,5.13V3a1,1,0,0,0-2,0V5.13l-1.45-1a1,1,0,1,0-1.11,1.66L15,7.54v4.61a4,4,0,0,0-1.85,1.06l-4-2.3L9,7.84A1,1,0,1,0,7,8L7.09,9.7,5.24,8.63a1,1,0,0,0-1,1.73l1.85,1.07-1.56.77A1,1,0,0,0,5.42,14l2.75-1.36,4,2.31a3.58,3.58,0,0,0,0,2.12l-4,2.31L5.42,18a1,1,0,1,0-.89,1.79l1.56.77L4.24,21.63a1,1,0,1,0,1,1.73L7.09,22.3,7,24a1,1,0,0,0,.93,1.06H8a1,1,0,0,0,1-.94l.2-3.06,4-2.3A4,4,0,0,0,15,19.86v4.61l-2.55,1.7a1,1,0,0,0,1.11,1.66l1.45-1V29a1,1,0,0,0,2,0V26.87l1.45,1a1,1,0,1,0,1.11-1.66L17,24.46V19.86a4,4,0,0,0,1.85-1.06l4,2.3.2,3.06a1,1,0,0,0,1,.94h.07A1,1,0,0,0,25,24l-.11-1.73,1.85,1.07a1,1,0,0,0,1-1.73ZM16,18a2,2,0,1,1,2-2A2,2,0,0,1,16,18Z"/></g></svg>