<svg version="1.0" xmlns="http://www.w3.org/2000/svg"
 width="1280.000000pt" height="1117.000000pt" viewBox="0 0 1280.000000 1117.000000"
 preserveAspectRatio="xMidYMid meet">
<g transform="translate(0.000000,1117.000000) scale(0.100000,-0.100000)"
fill="#000000" stroke="none">
<path d="M4969 10834 c-427 -77 -787 -364 -991 -790 -48 -101 -50 -104 -91
-114 -174 -43 -367 -128 -507 -223 -108 -74 -305 -273 -377 -382 -166 -249
-254 -525 -257 -806 l-1 -126 -60 -12 c-104 -21 -267 -80 -365 -133 -770 -409
-1079 -1420 -688 -2250 l51 -108 -74 -72 c-235 -229 -387 -509 -460 -846 -33
-152 -38 -467 -11 -627 61 -352 202 -638 439 -885 l76 -80 -37 -108 c-210
-617 -65 -1309 368 -1760 221 -230 487 -379 783 -439 137 -28 416 -25 550 5
88 20 165 43 224 67 12 5 24 -7 46 -47 50 -87 151 -218 242 -312 248 -255 539
-408 878 -462 133 -20 416 -15 533 11 477 105 898 438 1116 885 22 43 41 79
44 79 3 0 22 -36 44 -79 218 -447 639 -780 1116 -885 117 -26 400 -31 533 -11
339 54 630 207 878 462 91 94 192 225 242 312 22 40 34 52 46 47 259 -102 582
-122 851 -54 245 62 486 205 690 409 295 295 459 680 477 1120 9 237 -16 417
-89 638 l-40 122 76 80 c236 247 377 533 438 885 27 160 22 475 -11 627 -73
337 -225 617 -460 846 l-74 72 51 108 c391 829 81 1843 -688 2250 -104 56
-259 112 -360 132 l-65 13 -1 126 c-3 281 -91 557 -257 806 -78 117 -272 312
-388 388 -150 99 -321 174 -496 217 -41 10 -43 13 -91 114 -120 251 -283 444
-495 587 -224 150 -451 219 -722 219 -73 0 -171 -7 -218 -15 -401 -70 -757
-336 -970 -726 l-18 -33 -32 59 c-195 363 -561 632 -954 700 -106 19 -340 18
-444 -1z m486 -348 c357 -107 639 -418 742 -815 18 -72 27 -142 34 -276 6
-112 8 -1556 6 -3825 l-3 -3645 -21 -110 c-77 -394 -267 -714 -552 -928 -118
-89 -227 -146 -362 -191 -141 -47 -241 -60 -413 -53 -176 6 -295 36 -451 111
-209 101 -394 262 -524 456 l-62 92 40 37 c119 111 43 300 -116 288 -42 -3
-66 -13 -121 -50 -218 -145 -428 -205 -671 -194 -530 24 -977 441 -1103 1030
-26 125 -31 405 -9 527 12 66 58 240 65 247 2 2 41 -15 87 -36 226 -106 497
-144 758 -105 119 17 303 75 408 127 171 87 381 254 403 324 28 82 -9 170 -84
204 -75 34 -137 19 -215 -54 -148 -138 -349 -237 -550 -272 -590 -104 -1164
353 -1275 1014 -20 120 -21 337 -1 459 29 177 105 372 204 524 53 82 186 238
202 238 6 0 33 -25 61 -55 62 -68 183 -169 268 -225 61 -39 69 -41 125 -38
106 6 161 70 153 173 -6 70 -22 92 -118 159 -181 127 -311 280 -415 491 -106
214 -149 398 -148 640 0 231 41 420 134 614 171 359 461 604 811 686 l56 13
32 -91 c150 -430 489 -764 920 -908 105 -35 171 -39 217 -15 67 34 102 115 82
188 -17 66 -60 100 -164 132 -405 125 -697 452 -791 885 -23 105 -23 338 0
444 51 236 146 415 309 584 341 353 836 445 1286 237 90 -42 152 -45 201 -11
52 35 73 70 77 129 6 79 -23 123 -112 170 -93 49 -258 103 -375 123 -52 9
-112 19 -134 23 l-39 7 61 90 c129 192 316 342 517 414 116 42 182 51 335 47
122 -3 159 -8 235 -30z m2395 4 c229 -66 440 -224 582 -435 l61 -90 -39 -7
c-22 -4 -82 -14 -134 -23 -117 -20 -282 -74 -375 -123 -89 -47 -118 -91 -112
-170 9 -127 133 -189 255 -128 266 132 571 155 852 64 82 -26 207 -88 284
-141 74 -50 205 -174 261 -247 178 -232 267 -544 236 -825 -53 -473 -362 -853
-806 -991 -104 -32 -147 -66 -164 -132 -20 -73 15 -154 82 -188 44 -23 110
-20 207 11 429 137 779 480 930 912 l32 91 56 -13 c472 -111 832 -521 929
-1060 22 -121 22 -361 0 -480 -27 -152 -65 -264 -132 -400 -104 -211 -234
-364 -415 -491 -96 -67 -112 -89 -118 -159 -8 -103 47 -167 153 -173 56 -3 64
-1 125 38 85 56 206 157 268 225 28 30 55 55 61 55 16 0 149 -156 203 -239
146 -223 218 -471 218 -752 0 -162 -19 -286 -66 -427 -226 -684 -905 -1012
-1506 -728 -81 38 -194 114 -260 174 -89 82 -146 98 -224 63 -75 -34 -112
-122 -84 -204 22 -70 232 -237 403 -324 105 -52 289 -110 408 -127 261 -39
532 -1 758 105 46 21 85 38 87 36 2 -1 14 -42 28 -90 74 -256 73 -557 -4 -819
-30 -100 -126 -298 -188 -384 -108 -152 -254 -282 -430 -383 -339 -194 -761
-171 -1115 61 -64 42 -88 52 -130 55 -160 12 -236 -177 -116 -288 l40 -37 -62
-92 c-130 -194 -314 -354 -525 -457 -155 -74 -273 -104 -450 -110 -172 -7
-272 6 -413 53 -478 159 -827 595 -916 1144 -13 84 -15 529 -15 3884 0 3754 0
3790 20 3887 93 457 412 799 831 894 96 22 331 14 429 -15z"/>
<path d="M4910 8504 c-281 -41 -482 -134 -637 -296 -101 -106 -185 -269 -187
-363 -1 -98 65 -165 162 -165 86 0 148 51 167 137 10 47 74 142 132 194 66 59
168 112 268 140 103 29 287 32 385 6 109 -28 238 -98 302 -163 59 -59 110
-147 128 -220 19 -80 78 -126 160 -126 80 0 139 45 160 123 22 81 -44 258
-143 385 -114 146 -277 250 -480 308 -133 38 -309 55 -417 40z"/>
<path d="M2775 6446 c-52 -32 -77 -76 -77 -135 0 -84 41 -136 134 -171 112
-42 187 -121 257 -272 177 -381 78 -896 -208 -1086 -65 -44 -90 -75 -97 -124
-14 -86 32 -164 113 -188 54 -17 95 -8 172 38 292 171 475 624 431 1071 -41
429 -255 773 -541 870 -83 28 -134 27 -184 -3z"/>
<path d="M5425 5862 c-221 -145 -369 -451 -382 -794 l-6 -136 -81 -7 c-197
-16 -365 51 -508 203 -103 110 -186 252 -244 417 -35 102 -48 122 -95 146
-105 53 -225 -6 -244 -120 -13 -76 94 -337 206 -505 65 -97 183 -223 269 -288
86 -65 226 -133 325 -158 95 -25 275 -35 363 -22 55 8 65 7 69 -7 52 -163 118
-275 228 -387 106 -107 189 -154 272 -154 86 0 152 61 160 147 7 73 -22 125
-90 161 -122 63 -218 198 -269 377 -20 70 -23 101 -22 255 0 147 4 187 22 252
43 158 122 282 219 349 49 34 82 93 83 144 0 41 -38 114 -72 139 -18 12 -49
21 -85 24 -54 3 -62 1 -118 -36z"/>
<path d="M4010 3129 c-90 -13 -167 -46 -196 -85 -51 -67 -42 -168 21 -223 44
-38 94 -48 165 -32 104 24 153 24 240 2 279 -70 522 -310 626 -614 45 -133 51
-285 14 -382 -16 -42 -12 -117 9 -155 53 -100 213 -107 277 -11 64 98 86 353
45 540 -127 583 -693 1035 -1201 960z"/>
<path d="M7655 8503 c-264 -31 -477 -132 -637 -301 -115 -122 -197 -296 -183
-389 7 -47 42 -96 86 -118 39 -21 117 -19 159 3 35 19 45 34 109 172 110 238
469 367 779 280 205 -57 347 -179 402 -346 15 -43 32 -73 55 -93 84 -74 216
-42 259 62 18 42 19 54 8 105 -6 31 -32 98 -57 148 -123 251 -406 432 -738
474 -78 10 -178 11 -242 3z"/>
<path d="M9864 6456 c-275 -86 -489 -393 -550 -791 -21 -133 -13 -394 15 -515
35 -156 100 -311 174 -420 49 -71 144 -166 213 -210 69 -45 182 -89 229 -90
50 0 117 40 142 85 54 96 11 202 -97 240 -154 54 -265 197 -326 416 -32 117
-43 314 -25 440 15 101 61 244 102 316 61 106 165 199 244 218 85 19 142 98
132 182 -5 51 -29 88 -77 121 -38 25 -109 29 -176 8z"/>
<path d="M7201 5920 c-49 -11 -83 -40 -109 -93 -42 -83 -13 -158 87 -227 114
-77 204 -240 237 -432 22 -123 14 -320 -16 -433 -45 -172 -146 -322 -250 -375
-56 -28 -78 -47 -97 -84 -21 -41 -19 -118 4 -158 106 -182 406 -30 569 287 23
45 50 106 59 136 l17 54 182 0 c146 0 194 4 250 19 249 67 443 212 606 452
104 153 210 402 210 493 0 122 -129 198 -240 141 -50 -25 -61 -43 -101 -155
-114 -325 -320 -548 -564 -610 -61 -15 -181 -20 -247 -9 l-38 7 0 91 c0 177
-43 363 -120 521 -79 163 -171 270 -293 342 -59 35 -97 43 -146 33z"/>
<path d="M8555 3130 c-448 -70 -861 -481 -966 -962 -39 -179 -21 -430 39 -532
57 -98 217 -104 277 -12 31 47 35 93 15 170 -28 109 -31 155 -20 236 49 350
330 675 658 761 101 27 183 20 283 -22 57 -24 83 -30 117 -26 137 15 192 189
90 284 -29 27 -123 71 -191 89 -68 18 -227 25 -302 14z"/>
</g>
</svg>
